# xmcd
#
# Track frame offsets: 
#        150
#        27832
#        52787
#        81667
#        101120
#        124387
#        148885
#        184472
#        207322
#        226312
#        238210
#
# Disc length: 3709 seconds
#
# Revision: 10
# Processed by: cddbd v1.5.2PL0 Copyright (c) Steve Scherf et al.
# Submitted via: ExactAudioCopy v1.3
#
DISCID=a60e7b0b
DTITLE=Steve Vai - The 7th Song
DYEAR=2000
DGENRE=Instrumental Rock
TTITLE0=For The Love Of God
TTITLE1=Touching Tongues
TTITLE2=Windows To The Soul
TTITLE3=Burnin' Down The Mountain
TTITLE4=Tender Surrender
TTITLE5=Hand On Heart
TTITLE6=Melissa's Garden
TTITLE7=Call It Sleep
TTITLE8=Christmas Time Is Here
TTITLE9=The Wall Of Light
TTITLE10=Boston Rain Melody
EXTD=
EXTT0=
EXTT1=
EXTT2=
EXTT3=
EXTT4=
EXTT5=
EXTT6=
EXTT7=
EXTT8=
EXTT9=
EXTT10=
PLAYORDER=
